<svg xmlns="http://www.w3.org/2000/svg" width="640" height="220" viewBox="0 0 640 220" fill="none" role="img" aria-label="Fabric">
  <title>Fabric wordmark</title>
  <defs>
    <linearGradient id="fabric-wordmark-mark-gradient" x1="20" y1="64" x2="108" y2="64" gradientUnits="userSpaceOnUse">
      <stop offset="0" stop-color="#3B267D" />
      <stop offset="0.24" stop-color="#3E2B83" />
      <stop offset="0.39" stop-color="#5239B6" />
      <stop offset="0.46" stop-color="#5A47D7" />
      <stop offset="0.72" stop-color="#5A47D8" />
      <stop offset="1" stop-color="#5F5CEE" />
    </linearGradient>
  </defs>
  <g id="fabric-wordmark-symbol" data-fabric-symbol="true" transform="scale(1.55)" fill="url(#fabric-wordmark-mark-gradient)">
    <path d="M 108 18 H 57.97 C 50.05 20.47 42.12 24.91 35.68 31 C 30.5 35.9 25.8 43.1 21.49 53.55 C 21.35 53.15 21.5 52.35 21.82 51.41 C 23.63 41.7 29.91 30.84 39.48 22.94 V 18.33 H 20 V 110 H 39.32 V 87.95 C 32.88 89.76 26.11 93.71 21.82 97.33 C 21.58 97.2 21.56 97 21.65 96.83 C 30.73 84.65 44.93 77.41 61.28 77.41 H 69.53 L 82.41 57.66 H 53.85 C 38.66 65.73 27.43 77.25 21.65 90.91 C 21.4 90.75 21.4 90.5 21.49 90.25 C 23.63 79.22 29.58 69.51 39.48 61.12 V 52.23 C 32.71 53.88 26.27 56.84 21.49 60.63 C 21.25 60.5 21.2 60.2 21.32 59.97 C 26.44 53.38 32.05 50.59 34.86 49.11 L 103.71 21.62 C 103.87 22.11 101.07 24.75 95.29 29.03 C 88.35 32.65 84 34.4 80.92 35.45 C 85.05 38.41 88.52 42.69 89.51 46.64 L 108 18.49 Z" />
    <path d="M 83.02 46.64 C 83.02 49.34 80.83 51.53 78.12 51.53 C 75.42 51.53 73.23 49.34 73.23 46.64 C 73.23 43.94 75.42 41.75 78.12 41.75 C 80.83 41.75 83.02 43.94 83.02 46.64 Z" />
  </g>
  <g id="fabric-wordmark-letters" transform="translate(90 0) scale(0.87 1)" fill="#17171A">
    <path fill-rule="evenodd" d="M 150 64 C 114 64 91 87 91 122 C 91 157 113 180 148 180 C 165 180 179 174 189 163 V 177 H 217 V 67 H 189 V 80 C 179 69 166 64 150 64 Z M 153 89 C 174 89 188 102 188 122 C 188 143 174 156 153 156 C 133 156 120 143 120 122 C 120 102 133 89 153 89 Z" />
    <path fill-rule="evenodd" d="M 230 18 H 259 V 79 C 269 69 283 64 300 64 C 334 64 356 87 356 122 C 356 157 334 180 300 180 C 282 180 268 174 258 162 V 177 H 230 Z M 299 89 C 320 89 327 102 327 122 C 327 143 319 156 299 156 C 279 156 259 143 259 122 C 259 102 279 89 299 89 Z" />
    <path d="M 369 67 H 397 V 85 C 405 71 418 64 436 64 H 445 V 92 H 433 C 409 92 398 105 398 131 V 177 H 369 Z" />
    <path d="M 459 67 H 488 V 177 H 459 Z M 473.5 18 C 484 18 491 25 491 35.5 C 491 46 484 53 473.5 53 C 463 53 456 46 456 35.5 C 456 25 463 18 473.5 18 Z" />
    <path d="M 618 106 C 613 79 593 64 563 64 C 527 64 504 87 504 122 C 504 157 527 180 563 180 C 593 180 613 163 619 135 H 590 C 586 149 577 156 563 156 C 544 156 533 143 533 122 C 533 101 544 88 563 88 C 577 88 586 95 589 106 Z" />
  </g>
  <path id="fabric-wordmark-bracket" data-fabric-bracket="true" d="M 31 189 V 205 H 629 V 189" stroke="#9B9B9B" stroke-width="3" />
</svg>
