<svg xmlns="http://www.w3.org/2000/svg" width="640" height="220" viewBox="0 0 640 220" fill="none" role="img" aria-label="Fabric">
  <title>Fabric wordmark</title>
  <g id="fabric-wordmark-letters">
    <path fill="#4628CC" d="M 101 18 H 84 C 60 18 49 31 49 54 V 67 H 20 V 91 H 49 V 177 H 77 V 91 H 103 V 67 H 77 V 55 C 77 47 81 43 89 43 H 101 Z" />
    <path fill="#17171A" fill-rule="evenodd" d="M 150 64 C 114 64 91 87 91 122 C 91 157 113 180 148 180 C 165 180 179 174 189 163 V 177 H 217 V 67 H 189 V 80 C 179 69 166 64 150 64 Z M 153 89 C 174 89 188 102 188 122 C 188 143 174 156 153 156 C 133 156 120 143 120 122 C 120 102 133 89 153 89 Z" />
    <path fill="#17171A" fill-rule="evenodd" d="M 230 18 H 259 V 79 C 269 69 283 64 300 64 C 334 64 356 87 356 122 C 356 157 334 180 300 180 C 282 180 268 174 258 162 V 177 H 230 Z M 299 89 C 320 89 327 102 327 122 C 327 143 319 156 299 156 C 279 156 259 143 259 122 C 259 102 279 89 299 89 Z" />
    <path fill="#17171A" d="M 369 67 H 397 V 85 C 405 71 418 64 436 64 H 445 V 92 H 433 C 409 92 398 105 398 131 V 177 H 369 Z" />
    <path fill="#17171A" d="M 459 67 H 488 V 177 H 459 Z M 473.5 18 C 484 18 491 25 491 35.5 C 491 46 484 53 473.5 53 C 463 53 456 46 456 35.5 C 456 25 463 18 473.5 18 Z" />
    <path fill="#17171A" d="M 618 106 C 613 79 593 64 563 64 C 527 64 504 87 504 122 C 504 157 527 180 563 180 C 593 180 613 163 619 135 H 590 C 586 149 577 156 563 156 C 544 156 533 143 533 122 C 533 101 544 88 563 88 C 577 88 586 95 589 106 Z" />
  </g>
  <path id="fabric-wordmark-bracket" data-fabric-bracket="true" d="M 21 189 V 205 H 619 V 189" stroke="#9B9B9B" stroke-width="3" />
</svg>
